<?xml version="1.0" encoding="utf-8"?>
<!-- Generator: Adobe Illustrator 22.1.0, SVG Export Plug-In . SVG Version: 6.00 Build 0)  -->
<svg version="1.1" id="Layer_1" xmlns="http://www.w3.org/2000/svg" xmlns:xlink="http://www.w3.org/1999/xlink" x="0px" y="0px"
	 width="167px" height="64px" viewBox="0 0 167 64" enable-background="new 0 0 167 64" xml:space="preserve">
<title>Olynk_logo_svg</title>
<desc>Created with Sketch.</desc>
<g id="Page-1">
	<g id="_x31_.Main" transform="translate(-104.000000, -96.000000)">
		<g id="Olynk_logo_svg" transform="translate(104.000000, 96.000000)">
			<polygon id="Shape_1_" fill="#fff" points="69.8,9 69.8,44.1 81.9,44.1 81.9,49.9 63.7,49.9 63.7,9 			"/>
			<polygon id="Shape_2_" fill="#fff" points="90.4,45.1 78.8,24.1 85.8,24.1 93.7,38.9 101,24.1 107.8,24.1 87.2,63.9
				80.4,63.9 			"/>
			<!-- <linearGradient id="SVGID_1_" gradientUnits="userSpaceOnUse" x1="96.352" y1="29.6554" x2="166.6508" y2="29.6554">
				<stop  offset="0" style="stop-color:#4497FE"/>
				<stop  offset="1" style="stop-color:#06BF61"/>
			</linearGradient> -->
			<path fill="#fff" d="M121.6,5.7L96.4,53.6h70.3V5.7H121.6z M135.9,49.9h-6V35.5c0-2.5-0.4-4.3-1.1-5.3
				c-0.7-1-2-1.5-3.8-1.5c-2,0-3.4,0.7-4.2,2s-1.2,3.6-1.2,6.7v12.4h-6V24.1h6v2.4c1.8-1.9,4.4-3.1,7-3.1c3,0,5.3,0.9,7,2.8
				c1.4,1.6,2.2,4.2,2.2,7.9V49.9z M157,49.9l-8.5-9.9l-1,0.9v9.1h-6V9l6,0v24.9l8.4-7.6h8l-11.2,9.9l12.1,13.7H157z"/>

				<!-- <linearGradient id="Shape_3_" gradientUnits="userSpaceOnUse" x1="-212.3646" y1="327.9973" x2="-211.3646" y2="327.9973" gradientTransform="matrix(59.4152 0 0 -59.2982 12617.6777 19479.3066)">
				<stop  offset="0" style="stop-color:#06BF61"/>
				<stop  offset="1" style="stop-color:#4497FE"/>
			</linearGradient> -->
			<path id="Shape_5_" fill="#fff" d="M59.4,28.6c0-0.8-0.1-1.7-0.2-2.5c-0.4-3.6-1.5-7-3.2-10.2
				c-2.9-5.5-7.5-9.9-13-12.7c-3.8-1.9-8-3-12.3-3.2c-0.3,0-0.6,0-1,0h-0.6c-1,0-2,0.1-3,0.2c-3.5,0.4-6.9,1.5-10,3.1
				c-5.4,2.8-9.9,7.2-12.7,12.6C1.8,19,0.7,22.4,0.3,25.9c-0.1,0.9-0.2,1.7-0.3,2.6c0,0.4,0,0.7,0,1.1c0,0.3,0,0.5,0,0.8
				c0,0.9,0.1,1.8,0.2,2.6c0.4,3.3,1.4,6.6,2.9,9.6c2.9,5.8,7.6,10.5,13.4,13.5c2.9,1.5,6,2.4,9.2,2.9c1.2,0.2,2.4,0.3,3.7,0.3h0.4
				h0.4c1.2,0,2.5-0.1,3.7-0.3c3.2-0.4,6.3-1.4,9.2-2.9c5.5-2.8,10.1-7.2,13-12.7c1.7-3.2,2.8-6.8,3.2-10.4c0.1-0.8,0.2-1.6,0.2-2.5
				c0-0.3,0-0.6,0-1S59.4,28.9,59.4,28.6z M54.6,25.7c0.2,1,0.3,2.1,0.3,3.1c-5.1,0.7-9.8,2.7-13.9,5.8c-1.2,0.9-2.3,1.9-3.3,2.9
				c-1.4-2.5-3-4.8-4.8-6.9c0.3-0.3,0.7-0.6,1-0.9c3.6-3.1,7.7-5.6,12.1-7.2c2.4-0.9,4.8-1.5,7.3-1.9C53.8,22.3,54.3,24,54.6,25.7z
				 M38.1,6c1.5,0.5,2.9,1.2,4.3,2c3.5,2.1,6.5,5,8.7,8.4c-3.2,0.6-6.4,1.6-9.4,2.9c-0.7-0.7-1.4-1.4-2-2.1
				c-1.2-1.4-2.3-2.9-3.1-4.6c-1.3-2.4-2.2-5.1-2.6-7.8C35.4,5.1,36.8,5.5,38.1,6z M25.9,4.8c1.2-0.2,2.3-0.3,3.5-0.3
				c0.1,1.1,0.3,2.1,0.6,3.2c0.8,3.6,2.4,7,4.5,10.1c0.9,1.3,1.9,2.6,3.1,3.7c-2.5,1.4-4.8,3.1-6.9,5c-0.4-0.4-0.8-0.9-1.2-1.3
				c-1.7-2.1-3.2-4.4-4.5-6.8c-0.8-1.6-1.6-3.3-2.1-5c-0.8-2.4-1.4-4.8-1.8-7.3C22.6,5.5,24.2,5.1,25.9,4.8z M8.3,16.4
				c2.1-3.4,5-6.2,8.4-8.3c0.6,3.3,1.5,6.5,2.8,9.6c-0.5,0.6-1.1,1.1-1.7,1.7c-1.3,1.2-2.8,2.2-4.3,3.1c-2.7,1.6-5.6,2.6-8.7,3.1
				C5.4,22.4,6.6,19.2,8.3,16.4L8.3,16.4z M4.8,33.5c-0.2-1.1-0.3-2.1-0.3-3.2c1.2-0.1,2.5-0.4,3.7-0.7c3.7-0.9,7.2-2.6,10.2-4.8
				c1.1-0.8,2.2-1.7,3.2-2.7c1.3,2.3,2.8,4.4,4.5,6.4c-0.3,0.3-0.7,0.6-1,0.9c-2.2,1.9-4.7,3.5-7.3,4.8c-1.6,0.8-3.3,1.5-5.1,2.1
				c-2.2,0.7-4.5,1.3-6.9,1.6C5.4,36.5,5.1,35,4.8,33.5z M21.3,53.3c-1.5-0.5-2.9-1.2-4.3-2c-3.7-2.2-6.9-5.3-9-9.1
				c3.2-0.5,6.3-1.4,9.3-2.7c0.8,0.8,1.6,1.6,2.4,2.4c1.2,1.4,2.3,3,3.1,4.6c1.3,2.4,2.2,5.1,2.6,7.8C23.9,54.1,22.6,53.8,21.3,53.3
				z M34.1,54.4c-1.4,0.2-2.7,0.4-4.1,0.4c-0.1-0.6-0.2-1.2-0.3-1.8c-0.7-4.2-2.4-8.2-4.8-11.7c-0.9-1.4-2-2.6-3.1-3.8l-0.2-0.2
				l0.4-0.2c2.3-1.3,4.5-2.9,6.5-4.6c0.4,0.5,0.8,0.9,1.3,1.4c1.9,2.3,3.5,4.7,4.8,7.4c0.8,1.7,1.6,3.4,2.1,5.2
				c0.7,2.2,1.2,4.4,1.5,6.7C36.9,53.8,35.5,54.1,34.1,54.4z M51.1,42.9c-2.2,3.4-5.1,6.3-8.6,8.4c-0.5-3.2-1.4-6.3-2.7-9.3
				c1.7-2,3.8-3.8,6-5.2c2.7-1.6,5.7-2.8,8.8-3.3C54.1,36.8,52.9,40,51.1,42.9L51.1,42.9z"/>
		</g>
	</g>
</g>
</svg>
